name analog
datacolumns 19
datarows 62
range 0.216 0.2465
endheader
time	ground_force_vx	ground_force_vy	ground_force_vz	ground_force_px	ground_force_py	ground_force_pz	l_ground_force_vx	l_ground_force_vy	l_ground_force_vz	l_ground_force_px	l_ground_force_py	l_ground_force_pz	ground_torque_x	ground_torque_y	ground_torque_z	l_ground_torque_x	l_ground_torque_y	l_ground_torque_z
0.216	-0.0	-0.0	-0.0	1.3261631727218628	40.09669876098633	-714.6868286132812	1.2552441358566284	-6.5225701332092285	-84.54701232910156	-0.0	-0.0	-0.0	-0.0	-0.0	-0.0	20170.62890625	16180.576171875	-1933.7344970703125
0.2165	-0.0	-0.0	-0.0	1.5165786743164062	39.167877197265625	-719.1293334960938	0.1774215698242187	-6.031300067901611	-79.90809631347656	-0.0	-0.0	-0.0	-0.0	-0.0	-0.0	19093.19140625	15595.583984375	-1925.5224609375
0.217	-0.0	-0.0	-0.0	1.7466185092926023	37.73019409179688	-724.5208740234375	0.0631394460797309	-5.80377197265625	-75.81311798095703	-0.0	-0.0	-0.0	-0.0	-0.0	-0.0	18218.501953125	14773.8583984375	-1925.580322265625
0.2175	-0.0	-0.0	-0.0	2.181071281433105	36.11447143554688	-729.0095825195312	-0.1143183708190918	-5.14997673034668	-70.83098602294922	-0.0	-0.0	-0.0	-0.0	-0.0	-0.0	17066.75390625	13957.4130859375	-1883.37451171875
0.218	-0.0	-0.0	-0.0	3.0821666717529297	34.89015197753906	-735.0132446289062	-0.2425737977027893	-4.997076988220215	-66.29244232177734	-0.0	-0.0	-0.0	-0.0	-0.0	-0.0	16111.880859375	13084.4521484375	-1700.8671875
0.2185	-0.0	-0.0	-0.0	4.014472961425781	33.412452697753906	-741.2674560546875	-0.4575549364089966	-4.86931848526001	-62.10302734375	-0.0	-0.0	-0.0	-0.0	-0.0	-0.0	15083.8828125	12249.498046875	-1793.895751953125
0.219	-0.0	-0.0	-0.0	4.698953151702881	32.60714340209961	-746.6673583984375	-1.1390942335128784	-4.441685676574707	-57.1596565246582	-0.0	-0.0	-0.0	-0.0	-0.0	-0.0	14036.962890625	11345.7021484375	-1765.4454345703125
0.2195	-0.0	-0.0	-0.0	5.222682952880859	31.526195526123047	-751.5530395507812	-1.2276599407196045	-4.51863431930542	-52.67679214477539	-0.0	-0.0	-0.0	-0.0	-0.0	-0.0	12971.146484375	10583.498046875	-1692.87109375
0.22	-0.0	-0.0	-0.0	5.884147644042969	30.8911190032959	-755.5989990234375	-1.5452250242233276	-4.287726879119873	-48.67825698852539	-0.0	-0.0	-0.0	-0.0	-0.0	-0.0	11628.9482421875	9484.0732421875	-1757.1907958984375
0.2205	-0.0	-0.0	-0.0	6.813087463378906	30.49361801147461	-761.7932739257812	-2.4176878929138184	-3.6211891174316406	-43.20625686645508	-0.0	-0.0	-0.0	-0.0	-0.0	-0.0	10636.5625	8879.228515625	-1773.8472900390625
0.221	-0.0	-0.0	-0.0	6.475350379943848	29.96297836303711	-763.3851928710938	-2.6354665756225586	-3.4223642349243164	-39.75944137573242	-0.0	-0.0	-0.0	-0.0	-0.0	-0.0	9534.2275390625	8238.8232421875	-1823.4249267578125
0.2215	-0.0	-0.0	-0.0	6.6078972816467285	29.99553680419922	-766.7964477539062	-2.938492774963379	-3.2311363220214844	-34.66791534423828	-0.0	-0.0	-0.0	-0.0	-0.0	-0.0	8642.46484375	7205.24267578125	-1842.0810546875
0.222	-0.0	-0.0	-0.0	5.955684185028076	29.732709884643555	-772.3433227539062	-3.4965779781341557	-3.1795806884765625	-30.043041229248047	-0.0	-0.0	-0.0	-0.0	-0.0	-0.0	7387.94482421875	6196.228515625	-1807.7862548828125
0.2225	-0.0	-0.0	-0.0	5.383835792541504	29.795734405517575	-774.1085815429688	-3.7474966049194336	-2.951239109039306	-26.04159164428711	-0.0	-0.0	-0.0	-0.0	-0.0	-0.0	6417.91357421875	5575.4697265625	-1748.530029296875
0.223	-0.0	-0.0	-0.0	4.885595321655273	29.680423736572266	-776.3101806640625	-4.576248645782471	-2.4577879905700684	-22.899513244628903	-0.0	-0.0	-0.0	-0.0	-0.0	-0.0	5895.68359375	5005.31884765625	-1830.7730712890625
0.2235	-0.0	-0.0	-0.0	5.111273288726807	29.95330810546875	-776.2483520507812	-3.509934663772583	-1.4352573156356812	-15.047988891601562	-0.0	-0.0	-0.0	-0.0	-0.0	-0.0	3541.686767578125	3180.0029296875	-1344.21923828125
0.224	-0.0	-0.0	-0.0	4.59207820892334	30.62430191040039	-779.4046630859375	-0.0	-0.0	-0.0	-0.0	-0.0	-0.0	-0.0	-0.0	-0.0	-0.0	-0.0	-0.0
0.2245	-0.0	-0.0	-0.0	5.032305240631104	30.513078689575195	-781.587158203125	-0.0	-0.0	-0.0	-0.0	-0.0	-0.0	-0.0	-0.0	-0.0	-0.0	-0.0	-0.0
0.225	-0.0	-0.0	-0.0	4.754538536071777	30.36710929870605	-785.6412353515625	-0.0	-0.0	-0.0	-0.0	-0.0	-0.0	-0.0	-0.0	-0.0	-0.0	-0.0	-0.0
0.2255	-0.0	-0.0	-0.0	4.576153755187988	31.24842834472656	-788.37646484375	-0.0	-0.0	-0.0	-0.0	-0.0	-0.0	-0.0	-0.0	-0.0	-0.0	-0.0	-0.0
0.226	-0.0	-0.0	-0.0	4.047685146331787	32.07710647583008	-790.6383666992188	-0.0	-0.0	-0.0	-0.0	-0.0	-0.0	-0.0	-0.0	-0.0	-0.0	-0.0	-0.0
0.2265	-0.0	-0.0	-0.0	3.558675527572632	33.60490417480469	-792.3260498046875	-0.0	-0.0	-0.0	-0.0	-0.0	-0.0	-0.0	-0.0	-0.0	-0.0	-0.0	-0.0
0.227	-0.0	-0.0	-0.0	2.818575859069824	35.16313552856445	-794.5785522460938	-0.0	-0.0	-0.0	-0.0	-0.0	-0.0	-0.0	-0.0	-0.0	-0.0	-0.0	-0.0
0.2275	-0.0	-0.0	-0.0	1.8278067111968996	36.23050308227539	-793.7005004882812	-0.0	-0.0	-0.0	-0.0	-0.0	-0.0	-0.0	-0.0	-0.0	-0.0	-0.0	-0.0
0.228	-0.0	-0.0	-0.0	1.4179449081420898	37.67559051513672	-793.9111938476562	-0.0	-0.0	-0.0	-0.0	-0.0	-0.0	-0.0	-0.0	-0.0	-0.0	-0.0	-0.0
0.2285	-0.0	-0.0	-0.0	1.025266170501709	39.3331184387207	-794.6179809570312	-0.0	-0.0	-0.0	-0.0	-0.0	-0.0	-0.0	-0.0	-0.0	-0.0	-0.0	-0.0
0.229	-0.0	-0.0	-0.0	0.5619317293167114	40.38526916503906	-795.1500854492188	-0.0	-0.0	-0.0	-0.0	-0.0	-0.0	-0.0	-0.0	-0.0	-0.0	-0.0	-0.0
0.2295	-0.0	-0.0	-0.0	0.312536746263504	40.376075744628906	-795.9979248046875	-0.0	-0.0	-0.0	-0.0	-0.0	-0.0	-0.0	-0.0	-0.0	-0.0	-0.0	-0.0
0.23	-0.0	-0.0	-0.0	-0.847621738910675	41.09810256958008	-797.1983032226562	-0.0	-0.0	-0.0	-0.0	-0.0	-0.0	-0.0	-0.0	-0.0	-0.0	-0.0	-0.0
0.2305	-0.0	-0.0	-0.0	-1.150731086730957	41.45463562011719	-800.5172119140625	-0.0	-0.0	-0.0	-0.0	-0.0	-0.0	-0.0	-0.0	-0.0	-0.0	-0.0	-0.0
0.231	-0.0	-0.0	-0.0	-1.4005564451217651	42.550758361816406	-800.3770751953125	-0.0	-0.0	-0.0	-0.0	-0.0	-0.0	-0.0	-0.0	-0.0	-0.0	-0.0	-0.0
0.2315	-0.0	-0.0	-0.0	-2.471048355102539	42.94269943237305	-800.6246337890625	-0.0	-0.0	-0.0	-0.0	-0.0	-0.0	-0.0	-0.0	-0.0	-0.0	-0.0	-0.0
0.232	-0.0	-0.0	-0.0	-2.61398720741272	43.53105163574219	-802.3522338867188	-0.0	-0.0	-0.0	-0.0	-0.0	-0.0	-0.0	-0.0	-0.0	-0.0	-0.0	-0.0
0.2325	-0.0	-0.0	-0.0	-2.452510118484497	44.030418395996094	-797.9796142578125	-0.0	-0.0	-0.0	-0.0	-0.0	-0.0	-0.0	-0.0	-0.0	-0.0	-0.0	-0.0
0.233	-0.0	-0.0	-0.0	-2.070444345474243	44.47607421875	-798.6465454101562	-0.0	-0.0	-0.0	-0.0	-0.0	-0.0	-0.0	-0.0	-0.0	-0.0	-0.0	-0.0
0.2335	-0.0	-0.0	-0.0	-2.203273057937622	44.75992965698242	-795.32861328125	-0.0	-0.0	-0.0	-0.0	-0.0	-0.0	-0.0	-0.0	-0.0	-0.0	-0.0	-0.0
0.234	-0.0	-0.0	-0.0	-2.132920265197754	44.991973876953125	-794.1624755859375	-0.0	-0.0	-0.0	-0.0	-0.0	-0.0	-0.0	-0.0	-0.0	-0.0	-0.0	-0.0
0.23450000000000001	-0.0	-0.0	-0.0	-1.7110576629638672	45.62377548217773	-791.5833740234375	-0.0	-0.0	-0.0	-0.0	-0.0	-0.0	-0.0	-0.0	-0.0	-0.0	-0.0	-0.0
0.23500000000000001	-0.0	-0.0	-0.0	-1.178913950920105	44.98378372192383	-787.3453369140625	-0.0	-0.0	-0.0	-0.0	-0.0	-0.0	-0.0	-0.0	-0.0	-0.0	-0.0	-0.0
0.23550000000000001	-0.0	-0.0	-0.0	-0.9735053181648254	44.26289749145508	-784.7967529296875	-0.0	-0.0	-0.0	-0.0	-0.0	-0.0	-0.0	-0.0	-0.0	-0.0	-0.0	-0.0
0.23600000000000002	-0.0	-0.0	-0.0	-1.3264048099517822	42.82147979736328	-779.114990234375	-0.0	-0.0	-0.0	-0.0	-0.0	-0.0	-0.0	-0.0	-0.0	-0.0	-0.0	-0.0
0.23650000000000002	-0.0	-0.0	-0.0	-1.124934434890747	41.658668518066406	-776.7203369140625	-0.0	-0.0	-0.0	-0.0	-0.0	-0.0	-0.0	-0.0	-0.0	-0.0	-0.0	-0.0
0.23700000000000002	-0.0	-0.0	-0.0	-1.4695861339569092	39.94267272949219	-773.6798095703125	-0.0	-0.0	-0.0	-0.0	-0.0	-0.0	-0.0	-0.0	-0.0	-0.0	-0.0	-0.0
0.23750000000000002	-0.0	-0.0	-0.0	-1.4546432495117188	38.49695587158203	-771.482177734375	-0.0	-0.0	-0.0	-0.0	-0.0	-0.0	-0.0	-0.0	-0.0	-0.0	-0.0	-0.0
0.23800000000000002	-0.0	-0.0	-0.0	-1.6676889657974243	36.79084014892578	-768.6564331054688	-0.0	-0.0	-0.0	-0.0	-0.0	-0.0	-0.0	-0.0	-0.0	-0.0	-0.0	-0.0
0.23850000000000002	-0.0	-0.0	-0.0	-1.1655769348144531	35.67948532104492	-769.2774047851562	-0.0	-0.0	-0.0	-0.0	-0.0	-0.0	-0.0	-0.0	-0.0	-0.0	-0.0	-0.0
0.23900000000000002	-0.0	-0.0	-0.0	-1.4476922750473022	33.89691162109375	-768.7642822265625	-0.0	-0.0	-0.0	-0.0	-0.0	-0.0	-0.0	-0.0	-0.0	-0.0	-0.0	-0.0
0.23950000000000002	-0.0	-0.0	-0.0	-1.647120475769043	32.5804328918457	-769.281005859375	-0.0	-0.0	-0.0	-0.0	-0.0	-0.0	-0.0	-0.0	-0.0	-0.0	-0.0	-0.0
0.24	-0.0	-0.0	-0.0	-2.168506622314453	31.661880493164062	-766.7265625	-0.0	-0.0	-0.0	-0.0	-0.0	-0.0	-0.0	-0.0	-0.0	-0.0	-0.0	-0.0
0.2405	-0.0	-0.0	-0.0	-2.9097180366516118	30.976449966430664	-768.1663818359375	-0.0	-0.0	-0.0	-0.0	-0.0	-0.0	-0.0	-0.0	-0.0	-0.0	-0.0	-0.0
0.241	-0.0	-0.0	-0.0	-3.980312824249268	30.48259735107422	-766.2651977539062	-0.0	-0.0	-0.0	-0.0	-0.0	-0.0	-0.0	-0.0	-0.0	-0.0	-0.0	-0.0
0.2415	-0.0	-0.0	-0.0	-4.192893981933594	29.52318000793457	-765.9640502929688	-0.0	-0.0	-0.0	-0.0	-0.0	-0.0	-0.0	-0.0	-0.0	-0.0	-0.0	-0.0
0.242	-0.0	-0.0	-0.0	-4.52855396270752	29.680423736572266	-765.3409423828125	-0.0	-0.0	-0.0	-0.0	-0.0	-0.0	-0.0	-0.0	-0.0	-0.0	-0.0	-0.0
0.2425	-0.0	-0.0	-0.0	-4.473152160644531	29.071502685546875	-764.415771484375	-0.0	-0.0	-0.0	-0.0	-0.0	-0.0	-0.0	-0.0	-0.0	-0.0	-0.0	-0.0
0.243	-0.0	-0.0	-0.0	-4.232970714569092	29.462121963500977	-762.5758666992188	-0.0	-0.0	-0.0	-0.0	-0.0	-0.0	-0.0	-0.0	-0.0	-0.0	-0.0	-0.0
0.2435	-0.0	-0.0	-0.0	-3.897557020187378	28.99506187438965	-762.6734008789062	-0.0	-0.0	-0.0	-0.0	-0.0	-0.0	-0.0	-0.0	-0.0	-0.0	-0.0	-0.0
0.244	-0.0	-0.0	-0.0	-3.4574618339538574	28.73369026184082	-761.5657348632812	-0.0	-0.0	-0.0	-0.0	-0.0	-0.0	-0.0	-0.0	-0.0	-0.0	-0.0	-0.0
0.2445	-0.0	-0.0	-0.0	-3.534761905670166	29.074142456054688	-759.9967041015625	-0.0	-0.0	-0.0	-0.0	-0.0	-0.0	-0.0	-0.0	-0.0	-0.0	-0.0	-0.0
0.245	-0.0	-0.0	-0.0	-3.021611452102661	28.125883102416992	-759.644287109375	-0.0	-0.0	-0.0	-0.0	-0.0	-0.0	-0.0	-0.0	-0.0	-0.0	-0.0	-0.0
0.2455	-0.0	-0.0	-0.0	-3.010979652404785	27.563451766967773	-759.7124633789062	-0.0	-0.0	-0.0	-0.0	-0.0	-0.0	-0.0	-0.0	-0.0	-0.0	-0.0	-0.0
0.246	-0.0	-0.0	-0.0	-2.7878458499908447	26.766977310180664	-760.043212890625	-0.0	-0.0	-0.0	-0.0	-0.0	-0.0	-0.0	-0.0	-0.0	-0.0	-0.0	-0.0
0.2465	-0.0	-0.0	-0.0	-2.916027784347534	26.867040634155277	-760.7496337890625	-0.0	-0.0	-0.0	-0.0	-0.0	-0.0	-0.0	-0.0	-0.0	-0.0	-0.0	-0.0
